<?xml version="1.0" encoding="UTF-8" standalone="no"?>
<!-- Created with Inkscape (http://www.inkscape.org/) -->

<svg
   xmlns:dc="http://purl.org/dc/elements/1.1/"
   xmlns:cc="http://creativecommons.org/ns#"
   xmlns:rdf="http://www.w3.org/1999/02/22-rdf-syntax-ns#"
   xmlns:svg="http://www.w3.org/2000/svg"
   xmlns="http://www.w3.org/2000/svg"
   xmlns:sodipodi="http://sodipodi.sourceforge.net/DTD/sodipodi-0.dtd"
   xmlns:inkscape="http://www.inkscape.org/namespaces/inkscape"
   id="svg3036"
   version="1.1"
   inkscape:version="0.48.2 r9819"
   width="432"
   height="432"
   sodipodi:docname="NBC.svg">
  <metadata
     id="metadata3042">
    <rdf:RDF>
      <cc:Work
         rdf:about="">
        <dc:format>image/svg+xml</dc:format>
        <dc:type
           rdf:resource="http://purl.org/dc/dcmitype/StillImage" />
        <dc:title />
      </cc:Work>
    </rdf:RDF>
  </metadata>
  <defs
     id="defs3040" />
  <sodipodi:namedview
     pagecolor="#ffffff"
     bordercolor="#666666"
     borderopacity="1"
     objecttolerance="10"
     gridtolerance="10"
     guidetolerance="10"
     inkscape:pageopacity="0"
     inkscape:pageshadow="2"
     inkscape:window-width="1393"
     inkscape:window-height="799"
     id="namedview3038"
     showgrid="false"
     inkscape:zoom="1.0925926"
     inkscape:cx="85.178284"
     inkscape:cy="196.39401"
     inkscape:window-x="0"
     inkscape:window-y="0"
     inkscape:window-maximized="0"
     inkscape:current-layer="layer2" />
  <g
     inkscape:groupmode="layer"
     id="layer1"
     inkscape:label="Feather">
    <g
       id="g3772">
      <path
         sodipodi:nodetypes="cszsc"
         inkscape:connector-curvature="0"
         id="path3047"
         d="M 197.41133,237.50847 91.699467,164.74576 c -24.493742,-16.85933 -55.221513,-4.91471 -62.694916,18.76271 -7.473403,23.67742 8.956696,54 33.864407,54 z"
         style="fill:#f5c300;fill-opacity:1;stroke:none" />
      <path
         style="fill:#00aa4b;fill-opacity:1;stroke:none"
         d="m 236.58867,237.50847 103.71186,-72.76271 c 24.34186,-17.07789 55.22152,-4.91471 62.69492,18.76271 7.4734,23.67742 -8.9567,54 -33.86441,54 z"
         id="path3050"
         inkscape:connector-curvature="0"
         sodipodi:nodetypes="cszsc" />
      <path
         style="fill:#000000;fill-opacity:0;stroke:none"
         d="M 190.53361,222.96002 139.48923,105.21503 C 127.17935,76.819608 104.42874,60.783842 73.639213,81.014397 48.798836,102.61783 57.743626,132.23156 78.751209,146.58494 z"
         id="path3052"
         inkscape:connector-curvature="0"
         sodipodi:nodetypes="cscsc" />
      <path
         style="fill:#be0041;fill-opacity:1;stroke:none"
         d="M 192.14601,208.30058 210.4504,83.022581 C 215.48194,48.585987 207.0668,21.900837 170.50144,21.527387 145.83439,23.8997 121.38307,46.708201 137.74705,84.076549 z"
         id="path3822"
         inkscape:connector-curvature="0"
         sodipodi:nodetypes="cscsc" />
      <path
         sodipodi:nodetypes="cszsc"
         inkscape:connector-curvature="0"
         id="path3824"
         d="M 242.93742,223.54367 294.96869,102.5443 c 12.71972,-29.579871 40.03264,-43.038349 65.04046,-20.509148 25.00782,22.529198 14.39157,51.145198 -7.84439,66.429428 z"
         style="fill:#008ccd;fill-opacity:1;stroke:none" />
      <path
         sodipodi:nodetypes="csccccsc"
         inkscape:connector-curvature="0"
         id="path3826"
         d="M 241.76504,209.21583 223.46065,86.225971 c -2.13344,-14.334927 14.07463,-18.184095 14.07463,-18.184095 0.68644,-3.88983 -17.04071,-3.158546 -17.04071,-3.158546 -2.12596,-7.454701 4.71593,-22.347496 6.29543,-25.133386 6.318,-11.143562 17.8793,-18.035832 36.16198,-18.222557 24.66705,2.372313 47.75523,24.987862 31.83914,62.549162 z"
         style="fill:#6e55a0;fill-opacity:1;stroke:none" />
      <path
         style="fill:#eb7319;fill-opacity:1;stroke:none"
         d="M 190.54512,224.83804 137.21948,102.2207 C 122.28424,67.878502 95.598436,62.736532 72.179031,81.38797 c -23.419405,18.65144 -20.266486,48.15884 9.138754,68.37098 z"
         id="path2995"
         inkscape:connector-curvature="0"
         sodipodi:nodetypes="cszsc" />
    </g>
    <g
       inkscape:groupmode="layer"
       id="layer2"
       inkscape:label="NBC">
      <g
         id="g3056"
         transform="translate(4.4731275,0)">
        <text
           transform="scale(1.0009344,0.99906649)"
           sodipodi:linespacing="125%"
           id="text2991"
           y="408.66684"
           x="39.922302"
           style="font-size:176.43603516px;font-style:normal;font-variant:normal;font-weight:normal;font-stretch:normal;line-height:125%;letter-spacing:0px;word-spacing:0px;fill:#000000;fill-opacity:1;stroke:none;font-family:Motor Oil 1937 M54;-inkscape-font-specification:Motor Oil 1937 M54"
           xml:space="preserve"><tspan
             y="408.66684"
             x="39.922302"
             id="tspan2993"
             sodipodi:role="line">NB</tspan></text>
        <text
           sodipodi:linespacing="125%"
           id="text3052"
           y="408.20337"
           x="255.69489"
           style="font-size:176.3999939px;font-style:normal;font-variant:normal;font-weight:normal;font-stretch:normal;line-height:125%;letter-spacing:0px;word-spacing:0px;fill:#000000;fill-opacity:1;stroke:none;font-family:Motor Oil 1937 M54;-inkscape-font-specification:Motor Oil 1937 M54"
           xml:space="preserve"><tspan
             y="408.20337"
             x="255.69489"
             id="tspan3054"
             sodipodi:role="line">C</tspan></text>
      </g>
    </g>
  </g>
</svg>
